<svg width="280" height="23" viewBox="0 0 280 23" fill="none" xmlns="http://www.w3.org/2000/svg">
<path d="M8.43 20.98C8.17 21.66 7.72 22 7.08 22H1.41C1.23 22 1.07 21.94 0.93 21.82C0.81 21.68 0.75 21.52 0.75 21.34L0.78 21.16L7.32 1.99C7.4 1.73 7.55 1.5 7.77 1.3C7.99 1.1 8.29 0.999999 8.67 0.999999H17.01C17.39 0.999999 17.69 1.1 17.91 1.3C18.13 1.5 18.28 1.73 18.36 1.99L24.9 21.16L24.93 21.34C24.93 21.52 24.86 21.68 24.72 21.82C24.6 21.94 24.45 22 24.27 22H18.6C17.96 22 17.51 21.66 17.25 20.98L16.5 18.88H9.18L8.43 20.98ZM12.84 6.79L10.71 13.03H14.97L12.84 6.79ZM186.848 20.98C186.588 21.66 186.138 22 185.498 22H179.828C179.648 22 179.488 21.94 179.348 21.82C179.228 21.68 179.168 21.52 179.168 21.34L179.198 21.16L185.738 1.99C185.818 1.73 185.968 1.5 186.188 1.3C186.408 1.1 186.708 0.999999 187.088 0.999999H195.428C195.808 0.999999 196.108 1.1 196.328 1.3C196.548 1.5 196.698 1.73 196.778 1.99L203.318 21.16L203.348 21.34C203.348 21.52 203.278 21.68 203.138 21.82C203.018 21.94 202.868 22 202.688 22H197.018C196.378 22 195.928 21.66 195.668 20.98L194.918 18.88H187.598L186.848 20.98ZM191.258 6.79L189.128 13.03H193.388L191.258 6.79Z" fill="#5DB7EA"/>
<path d="M35.4783 13.9C35.4783 14.72 35.7483 15.35 36.2883 15.79C36.8483 16.23 37.5983 16.45 38.5383 16.45C39.3783 16.45 39.9983 16.31 40.3983 16.03C40.7983 15.75 41.1383 15.33 41.4183 14.77C41.6783 14.25 42.0283 13.99 42.4683 13.99H48.9483C49.1283 13.99 49.2783 14.06 49.3983 14.2C49.5383 14.32 49.6083 14.47 49.6083 14.65C49.6083 15.87 49.1983 17.07 48.3783 18.25C47.5583 19.41 46.3083 20.38 44.6283 21.16C42.9683 21.92 40.9383 22.3 38.5383 22.3C36.3983 22.3 34.4883 21.98 32.8083 21.34C31.1483 20.68 29.8283 19.68 28.8483 18.34C27.8683 16.98 27.3783 15.29 27.3783 13.27V9.73C27.3783 7.71 27.8683 6.03 28.8483 4.69C29.8283 3.33 31.1483 2.33 32.8083 1.69C34.4883 1.03 36.3983 0.699999 38.5383 0.699999C40.9383 0.699999 42.9683 1.09 44.6283 1.87C46.3083 2.63 47.5583 3.6 48.3783 4.78C49.1983 5.94 49.6083 7.13 49.6083 8.35C49.6083 8.53 49.5383 8.69 49.3983 8.83C49.2783 8.95 49.1283 9.01 48.9483 9.01H42.4683C42.0283 9.01 41.6783 8.75 41.4183 8.23C41.1383 7.67 40.7983 7.25 40.3983 6.97C39.9983 6.69 39.3783 6.55 38.5383 6.55C37.5983 6.55 36.8483 6.77 36.2883 7.21C35.7483 7.65 35.4783 8.28 35.4783 9.1V13.9ZM74.0766 0.999999C74.2966 0.999999 74.4866 1.08 74.6466 1.24C74.8066 1.4 74.8866 1.59 74.8866 1.81V6.64C74.8866 6.86 74.8066 7.05 74.6466 7.21C74.4866 7.37 74.2966 7.45 74.0766 7.45H67.6266V21.19C67.6266 21.41 67.5466 21.6 67.3866 21.76C67.2266 21.92 67.0366 22 66.8166 22H60.6366C60.4166 22 60.2266 21.92 60.0666 21.76C59.9066 21.6 59.8266 21.41 59.8266 21.19V7.45H53.3766C53.1566 7.45 52.9666 7.37 52.8066 7.21C52.6466 7.05 52.5666 6.86 52.5666 6.64V1.81C52.5666 1.59 52.6466 1.4 52.8066 1.24C52.9666 1.08 53.1566 0.999999 53.3766 0.999999H74.0766ZM93.2948 15.85H98.7248C98.9448 15.85 99.1348 15.93 99.2948 16.09C99.4548 16.25 99.5348 16.44 99.5348 16.66V21.19C99.5348 21.41 99.4548 21.6 99.2948 21.76C99.1348 21.92 98.9448 22 98.7248 22H79.7048C79.4848 22 79.2948 21.92 79.1348 21.76C78.9748 21.6 78.8948 21.41 78.8948 21.19V16.66C78.8948 16.44 78.9748 16.25 79.1348 16.09C79.2948 15.93 79.4848 15.85 79.7048 15.85H85.1948V7.15H79.7048C79.4848 7.15 79.2948 7.07 79.1348 6.91C78.9748 6.75 78.8948 6.56 78.8948 6.34V1.81C78.8948 1.59 78.9748 1.4 79.1348 1.24C79.2948 1.08 79.4848 0.999999 79.7048 0.999999H98.7248C98.9448 0.999999 99.1348 1.08 99.2948 1.24C99.4548 1.4 99.5348 1.59 99.5348 1.81V6.34C99.5348 6.56 99.4548 6.75 99.2948 6.91C99.1348 7.07 98.9448 7.15 98.7248 7.15H93.2948V15.85ZM125.863 13.33C125.863 16.39 124.843 18.65 122.803 20.11C120.783 21.57 118.083 22.3 114.703 22.3C111.323 22.3 108.613 21.57 106.573 20.11C104.553 18.65 103.543 16.37 103.543 13.27V9.73C103.543 7.69 104.023 6 104.983 4.66C105.963 3.3 107.293 2.3 108.973 1.66C110.653 1.02 112.563 0.699999 114.703 0.699999C116.843 0.699999 118.743 1.02 120.403 1.66C122.083 2.3 123.413 3.29 124.393 4.63C125.373 5.97 125.863 7.65 125.863 9.67V13.33ZM111.643 13.9C111.643 14.72 111.913 15.35 112.453 15.79C113.013 16.23 113.763 16.45 114.703 16.45C115.643 16.45 116.383 16.23 116.923 15.79C117.483 15.33 117.763 14.69 117.763 13.87V9.13C117.763 8.31 117.483 7.68 116.923 7.24C116.383 6.78 115.643 6.55 114.703 6.55C113.763 6.55 113.013 6.77 112.453 7.21C111.913 7.65 111.643 8.28 111.643 9.1V13.9ZM149.581 0.999999C149.801 0.999999 149.991 1.08 150.151 1.24C150.311 1.4 150.391 1.59 150.391 1.81V21.19C150.391 21.41 150.311 21.6 150.151 21.76C149.991 21.92 149.801 22 149.581 22H144.751C144.271 22 143.871 21.79 143.551 21.37L137.011 13.03V21.19C137.011 21.41 136.931 21.6 136.771 21.76C136.611 21.92 136.421 22 136.201 22H130.621C130.401 22 130.211 21.92 130.051 21.76C129.891 21.6 129.811 21.41 129.811 21.19V1.81C129.811 1.59 129.891 1.4 130.051 1.24C130.211 1.08 130.401 0.999999 130.621 0.999999H135.481C135.961 0.999999 136.351 1.2 136.651 1.6L143.191 10.63V1.81C143.191 1.59 143.271 1.4 143.431 1.24C143.591 1.08 143.781 0.999999 144.001 0.999999H149.581ZM226.436 15.85C226.656 15.85 226.846 15.93 227.006 16.09C227.166 16.25 227.246 16.44 227.246 16.66V21.19C227.246 21.41 227.166 21.6 227.006 21.76C226.846 21.92 226.656 22 226.436 22H208.916C208.696 22 208.506 21.92 208.346 21.76C208.186 21.6 208.106 21.41 208.106 21.19V1.81C208.106 1.59 208.186 1.4 208.346 1.24C208.506 1.08 208.696 0.999999 208.916 0.999999H215.396C215.616 0.999999 215.806 1.08 215.966 1.24C216.126 1.4 216.206 1.59 216.206 1.81V15.85H226.436ZM251.925 15.85C252.145 15.85 252.335 15.93 252.495 16.09C252.655 16.25 252.735 16.44 252.735 16.66V21.19C252.735 21.41 252.655 21.6 252.495 21.76C252.335 21.92 252.145 22 251.925 22H234.405C234.185 22 233.995 21.92 233.835 21.76C233.675 21.6 233.595 21.41 233.595 21.19V1.81C233.595 1.59 233.675 1.4 233.835 1.24C233.995 1.08 234.185 0.999999 234.405 0.999999H240.885C241.105 0.999999 241.295 1.08 241.455 1.24C241.615 1.4 241.695 1.59 241.695 1.81V15.85H251.925ZM278.613 0.999999C278.793 0.999999 278.943 1.07 279.063 1.21C279.203 1.33 279.273 1.47 279.273 1.63C279.273 1.75 279.243 1.87 279.183 1.99L271.623 14.5V21.19C271.623 21.41 271.543 21.6 271.383 21.76C271.223 21.92 271.033 22 270.813 22H264.423C264.203 22 264.013 21.92 263.853 21.76C263.693 21.6 263.613 21.41 263.613 21.19V14.5L256.083 1.99C256.023 1.87 255.993 1.76 255.993 1.66C255.993 1.48 256.053 1.33 256.173 1.21C256.313 1.07 256.473 0.999999 256.653 0.999999H262.983C263.543 0.999999 263.953 1.23 264.213 1.69L267.603 7.63L271.083 1.75C271.383 1.25 271.803 0.999999 272.343 0.999999H278.613Z" fill="white"/>
</svg>
